<?xml version="1.0" encoding="UTF-8" standalone="no"?>
<svg
   width="162"
   height="32"
   viewBox="0 0 162 32"
   fill="none"
   version="1.1"
   id="svg168"
   sodipodi:docname="Logo.svg"
   inkscape:version="1.2.1 (9c6d41e410, 2022-07-14)"
   xmlns:inkscape="http://www.inkscape.org/namespaces/inkscape"
   xmlns:sodipodi="http://sodipodi.sourceforge.net/DTD/sodipodi-0.dtd"
   xmlns="http://www.w3.org/2000/svg"
   xmlns:svg="http://www.w3.org/2000/svg">
  <defs
     id="defs172" />
  <sodipodi:namedview
     id="namedview170"
     pagecolor="#ffffff"
     bordercolor="#000000"
     borderopacity="0.25"
     inkscape:showpageshadow="2"
     inkscape:pageopacity="0.0"
     inkscape:pagecheckerboard="0"
     inkscape:deskcolor="#d1d1d1"
     showgrid="false"
     inkscape:zoom="5.1419753"
     inkscape:cx="82.944778"
     inkscape:cy="10.501801"
     inkscape:window-width="1366"
     inkscape:window-height="705"
     inkscape:window-x="-8"
     inkscape:window-y="-8"
     inkscape:window-maximized="1"
     inkscape:current-layer="svg168" />
  <mask
     id="mask0_1243_5346"
     style="mask-type:alpha"
     maskUnits="userSpaceOnUse"
     x="0"
     y="0"
     width="32"
     height="32">
    <circle
       cx="15.6652"
       cy="16.1108"
       r="15.6652"
       fill="#FFD245"
       id="circle155" />
  </mask>
  <g
     id="g384"
     transform="translate(-0.21395342,-0.44559956)">
    <circle
       cx="15.6652"
       cy="16.1108"
       r="15.6652"
       fill="#ffd245"
       id="circle153" />
    <g
       mask="url(#mask0_1243_5346)"
       id="g162">
      <circle
         cx="18.9006"
         cy="9.78022"
         r="15.6652"
         fill="#ffe486"
         id="circle158" />
      <circle
         cx="27.7873"
         cy="9.78022"
         r="15.6652"
         fill="#ff8718"
         id="circle160" />
    </g>
    <circle
       cx="24.184099"
       cy="24.630199"
       r="6.1460299"
       fill="#1642b9"
       stroke="#ffffff"
       stroke-width="2"
       id="circle164" />
  </g>
  <g
     aria-label="CryptoGo"
     id="text440"
     style="font-size:26.6667px;font-family:'Source Sans Pro';-inkscape-font-specification:'Source Sans Pro';fill:#ffffff"
     transform="translate(-0.93647089,7.8132629)">
    <path
       d="m 55.688016,16.32 q -1.653336,0 -3.040004,-0.613334 -1.386668,-0.613334 -2.42667,-1.760002 -1.013334,-1.173335 -1.600002,-2.853337 -0.56,-1.7066687 -0.56,-3.8400047 0,-2.1066693 0.586667,-3.7866715 0.586667,-1.6800021 1.626669,-2.85333691 1.040001,-1.17333482 2.453336,-1.78666889 1.413335,-0.6400008 3.093337,-0.6400008 1.600002,0 2.800004,0.6666675 1.226668,0.64000078 2.000002,1.49333519 L 59.421354,1.7866487 Q 58.72802,1.0399811 57.848019,0.58664719 56.968018,0.13331328 55.848016,0.13331328 q -1.253335,0 -2.266669,0.50666731 -1.013335,0.48000061 -1.733336,1.41333511 -0.720001,0.9066678 -1.120001,2.2133361 -0.373334,1.3066684 -0.373334,2.9333371 0,1.6533354 0.373334,2.9866701 0.4,1.306669 1.093334,2.240003 0.693335,0.933335 1.680002,1.440002 1.013335,0.506667 2.26667,0.506667 1.280002,0 2.240003,-0.506667 0.960001,-0.533334 1.813335,-1.466669 l 1.226669,1.386669 q -1.040002,1.200001 -2.34667,1.866669 Q 57.394685,16.32 55.688016,16.32 Z"
       id="path494"
       style="fill:#ffffff;fill-opacity:1" />
    <path
       d="m 64.088004,3.0399836 h 1.813336 l 0.186667,2.3466697 h 0.08 q 0.666667,-1.2266683 1.600002,-1.9466692 0.960001,-0.7200009 2.080002,-0.7200009 0.773335,0 1.386669,0.266667 L 70.808013,4.9066526 Q 70.488012,4.7999858 70.221345,4.7466524 69.954678,4.693319 69.554678,4.693319 q -0.826668,0 -1.733336,0.6666676 -0.880001,0.6666675 -1.546668,2.3200029 V 16 h -2.18667 z"
       id="path496"
       style="fill:#ffffff;fill-opacity:1" />
    <path
       d="m 74.221344,21.57334 q -0.453334,0 -0.826668,-0.08 -0.373334,-0.05333 -0.693334,-0.186667 l 0.426667,-1.733335 q 0.213333,0.05333 0.48,0.106667 0.266667,0.08 0.506668,0.08 1.120001,0 1.813335,-0.800001 0.720001,-0.773335 1.120002,-1.973336 L 77.341348,16.026667 72.141341,3.0399836 h 2.266669 l 2.640004,7.1733424 q 0.293334,0.853334 0.613334,1.813336 0.346667,0.933334 0.640001,1.840002 h 0.106667 q 0.293333,-0.880001 0.56,-1.840002 0.266667,-0.960002 0.533334,-1.813336 l 2.320003,-7.1733424 h 2.133336 L 79.074683,17.066668 q -0.346667,0.960001 -0.773334,1.786669 -0.426667,0.826668 -1.013335,1.413335 -0.586667,0.613334 -1.333335,0.960001 -0.746667,0.346667 -1.733335,0.346667 z"
       id="path498"
       style="fill:#ffffff;fill-opacity:1" />
    <path
       d="m 86.461385,3.0399836 h 1.813335 l 0.186667,1.4933352 h 0.08 q 0.880002,-0.7466676 1.920003,-1.2800016 1.066668,-0.533334 2.213336,-0.533334 1.253335,0 2.213336,0.4800006 0.960001,0.4533339 1.600002,1.333335 0.640001,0.8533345 0.960001,2.0800027 0.346668,1.2000015 0.346668,2.7200034 0,1.6533351 -0.453334,2.9600041 -0.453334,1.280001 -1.226669,2.186669 -0.773334,0.906668 -1.786669,1.386668 Q 93.314727,16.32 92.194725,16.32 q -0.906667,0 -1.813335,-0.4 -0.880001,-0.400001 -1.786669,-1.093335 l 0.05333,2.26667 v 4.373339 h -2.186669 z m 5.360007,11.4400144 q 0.800001,0 1.466668,-0.346667 0.693334,-0.373334 1.173335,-1.013335 0.506667,-0.666667 0.773334,-1.626668 0.293334,-0.960002 0.293334,-2.1600031 0,-1.066668 -0.186667,-1.9466691 Q 95.154729,6.5066547 94.728062,5.8933206 94.328061,5.2533198 93.661394,4.9066526 93.021393,4.5599855 92.114725,4.5599855 q -0.826667,0 -1.680002,0.453334 -0.826668,0.4533339 -1.786669,1.3066683 v 6.8000082 q 0.880001,0.746668 1.706669,1.066668 0.826668,0.293334 1.466669,0.293334 z"
       id="path500"
       style="fill:#ffffff;fill-opacity:1" />
    <path
       d="m 104.88808,16.32 q -1.04,0 -1.76,-0.32 -0.69334,-0.32 -1.14667,-0.880001 -0.42667,-0.560001 -0.61334,-1.360002 -0.18666,-0.800001 -0.18666,-1.760002 V 4.8266525 H 99.261404 V 3.1733171 l 2.026666,-0.1333335 0.26667,-3.62667123 h 1.84 V 3.0399836 h 3.49334 v 1.7866689 h -3.49334 v 7.2000095 q 0,1.200001 0.42667,1.866669 0.45333,0.64 1.57333,0.64 0.34667,0 0.74667,-0.106666 0.4,-0.106667 0.72,-0.240001 L 107.28808,15.84 q -0.53333,0.186667 -1.17333,0.32 -0.61334,0.16 -1.22667,0.16 z"
       id="path502"
       style="fill:#ffffff;fill-opacity:1" />
    <path
       d="m 114.48807,16.32 q -1.2,0 -2.29333,-0.453334 -1.06667,-0.453333 -1.89334,-1.306668 -0.82667,-0.880001 -1.33333,-2.133336 -0.48,-1.280001 -0.48,-2.8800035 0,-1.6266687 0.48,-2.8800036 0.50666,-1.2800016 1.33333,-2.1600028 0.82667,-0.8800011 1.89334,-1.333335 1.09333,-0.4533339 2.29333,-0.4533339 1.20001,0 2.26667,0.4533339 1.09334,0.4533339 1.92001,1.333335 0.82666,0.8800012 1.30666,2.1600028 0.50667,1.2533349 0.50667,2.8800036 0,1.6000025 -0.50667,2.8800035 -0.48,1.253335 -1.30666,2.133336 -0.82667,0.853335 -1.92001,1.306668 Q 115.68808,16.32 114.48807,16.32 Z m 0,-1.813335 q 0.82667,0 1.52001,-0.346667 0.69333,-0.373334 1.17333,-1.013335 0.50667,-0.666667 0.77334,-1.573335 0.26666,-0.906668 0.26666,-2.0266695 0,-1.1200014 -0.26666,-2.0266692 -0.26667,-0.9333345 -0.77334,-1.600002 -0.48,-0.6666675 -1.17333,-1.0133347 -0.69334,-0.3733338 -1.52001,-0.3733338 -0.82666,0 -1.52,0.3733338 -0.69333,0.3466672 -1.2,1.0133347 -0.48,0.6666675 -0.74667,1.600002 -0.26666,0.9066678 -0.26666,2.0266692 0,1.1200015 0.26666,2.0266695 0.26667,0.906668 0.74667,1.573335 0.50667,0.640001 1.2,1.013335 0.69334,0.346667 1.52,0.346667 z"
       id="path504"
       style="fill:#ffffff;fill-opacity:1" />
    <path
       d="m 131.23475,16.32 q -1.76,0 -3.28,-0.586667 -1.49334,-0.586667 -2.61334,-1.733336 -1.09333,-1.146668 -1.70667,-2.82667 -0.61333,-1.6800019 -0.61333,-3.8400046 0,-2.133336 0.64,-3.8133382 0.64,-1.7066688 1.73334,-2.88000361 1.12,-1.17333482 2.61333,-1.78666889 1.52,-0.6133341 3.25334,-0.6133341 1.86667,0 3.14667,0.6933342 1.30667,0.66666748 2.13334,1.52000189 l -1.65334,2.00000251 q -0.66667,-0.6400008 -1.49333,-1.066668 -0.80001,-0.45333391 -2.02667,-0.45333391 -1.17334,0 -2.13334,0.45333391 -0.93333,0.4266672 -1.62667,1.2533349 -0.66667,0.800001 -1.04,1.9733358 -0.37333,1.1733349 -0.37333,2.6400034 0,2.9866707 1.33333,4.6933397 1.36,1.680002 4.00001,1.680002 0.74666,0 1.41333,-0.186667 0.66667,-0.213334 1.09334,-0.586668 V 9.0933246 h -3.30667 V 6.5599881 h 6.08 v 7.6800099 q -0.88,0.880001 -2.34667,1.493335 -1.44,0.586667 -3.22667,0.586667 z"
       style="font-weight:600;-inkscape-font-specification:'Source Sans Pro Semi-Bold';fill:#ffffff;fill-opacity:1"
       id="path506" />
    <path
       d="m 145.76811,16.32 q -1.22667,0 -2.34667,-0.453334 -1.12,-0.453333 -2,-1.333335 -0.85333,-0.880001 -1.36,-2.160002 -0.50667,-1.280002 -0.50667,-2.9066706 0,-1.6266687 0.50667,-2.9066703 0.50667,-1.2800016 1.36,-2.1600028 0.88,-0.8800011 2,-1.333335 1.12,-0.4800006 2.34667,-0.4800006 1.22667,0 2.34667,0.4800006 1.14667,0.4533339 2.00001,1.333335 0.85333,0.8800012 1.36,2.1600028 0.53333,1.2800016 0.53333,2.9066703 0,1.6266686 -0.53333,2.9066706 -0.50667,1.280001 -1.36,2.160002 -0.85334,0.880002 -2.00001,1.333335 -1.12,0.453334 -2.34667,0.453334 z m 0,-2.506669 q 1.44,0 2.26667,-1.173335 0.82667,-1.200002 0.82667,-3.1733376 0,-2.0000025 -0.82667,-3.1733373 -0.82667,-1.2000015 -2.26667,-1.2000015 -1.44,0 -2.26667,1.2000015 -0.8,1.1733348 -0.8,3.1733373 0,1.9733356 0.8,3.1733376 0.82667,1.173335 2.26667,1.173335 z"
       style="font-weight:600;-inkscape-font-specification:'Source Sans Pro Semi-Bold';fill:#ffffff;fill-opacity:1"
       id="path508" />
  </g>
</svg>
