<?xml version="1.0" encoding="UTF-8" standalone="no"?>
<!-- Created with Inkscape (http://www.inkscape.org/) -->

<svg
   version="1.1"
   id="svg132"
   width="112"
   height="59"
   viewBox="0 0 112 59"
   sodipodi:docname="logo.svg"
   inkscape:version="1.2.1 (9c6d41e410, 2022-07-14)"
   xmlns:inkscape="http://www.inkscape.org/namespaces/inkscape"
   xmlns:sodipodi="http://sodipodi.sourceforge.net/DTD/sodipodi-0.dtd"
   xmlns="http://www.w3.org/2000/svg"
   xmlns:svg="http://www.w3.org/2000/svg">
  <defs
     id="defs136" />
  <sodipodi:namedview
     id="namedview134"
     pagecolor="#ffffff"
     bordercolor="#000000"
     borderopacity="0.25"
     inkscape:showpageshadow="2"
     inkscape:pageopacity="0.0"
     inkscape:pagecheckerboard="true"
     inkscape:deskcolor="#d1d1d1"
     showgrid="false"
     inkscape:zoom="7.4375"
     inkscape:cx="47.462185"
     inkscape:cy="33.747899"
     inkscape:window-width="1366"
     inkscape:window-height="705"
     inkscape:window-x="-8"
     inkscape:window-y="-8"
     inkscape:window-maximized="1"
     inkscape:current-layer="text300" />
  <g
     inkscape:groupmode="layer"
     inkscape:label="Image"
     id="g138">
    <g
       aria-label="SEODIGIT"
       id="text300"
       style="font-weight:600;font-size:26.6667px;font-family:'Source Sans Pro';-inkscape-font-specification:'Source Sans Pro Semi-Bold';fill:#ffffff">
      <rect
         style="fill:#c63dff;fill-opacity:1;stroke-width:1.13448"
         id="rect587"
         width="54.228733"
         height="48.727417"
         x="-60.512703"
         y="12.280871"
         transform="matrix(-0.54941143,-0.83555196,1,0,0,0)" />
      <path
         d="m 6.2933413,36.946053 q -1.7600023,0 -3.4133377,-0.666667 Q 1.2533349,35.612718 -1.8119812e-8,34.38605 L 1.8133356,32.279381 q 0.9333345,0.880001 2.133336,1.440002 1.2000016,0.533334 2.4000031,0.533334 1.4933352,0 2.2666695,-0.613335 0.7733343,-0.613334 0.7733343,-1.626668 0,-0.533334 -0.2133336,-0.906668 Q 8.986678,30.732712 8.6133442,30.466045 8.2666771,30.172711 7.7600098,29.932711 7.2800092,29.692711 6.6933418,29.45271 L 4.2933387,28.412709 Q 3.6533379,28.146042 3.0133371,27.746042 2.400003,27.346041 1.8933357,26.78604 1.3866684,26.22604 1.066668,25.479372 0.77333429,24.732704 0.77333429,23.772703 q 0,-1.040001 0.42666721,-1.920002 0.4533339,-0.906668 1.2266682,-1.573335 0.7733343,-0.666668 1.8400023,-1.040002 1.0933348,-0.373334 2.3733364,-0.373334 1.5200019,0 2.933337,0.613335 1.4133356,0.586667 2.4266696,1.600002 L 10.42668,23.052702 Q 9.5733454,22.359368 8.6666776,21.959368 7.7600098,21.559367 6.6400084,21.559367 q -1.2533349,0 -2.0000026,0.560001 -0.7466676,0.533334 -0.7466676,1.493335 0,0.506667 0.2133336,0.880001 0.2400003,0.346667 0.6133341,0.640001 0.4000006,0.266667 0.9066679,0.506667 0.5066673,0.213334 1.0400013,0.426668 l 2.3733363,0.986667 q 0.7733343,0.320001 1.4133356,0.746668 0.64,0.426667 1.093334,0.986668 0.480001,0.560001 0.746668,1.306668 0.266667,0.720001 0.266667,1.680002 0,1.066668 -0.426667,2.000003 -0.426668,0.933334 -1.253335,1.653335 -0.800001,0.693335 -1.9733361,1.120002 -1.1466681,0.4 -2.6133366,0.4 z"
         id="path406" />
      <path
         d="m 15.733355,19.186031 h 10.50668 v 2.613336 h -7.413342 v 4.453339 h 6.266674 v 2.613337 h -6.266674 v 5.146673 h 7.680009 v 2.613337 H 15.733355 Z"
         id="path408" />
      <path
         d="m 36.853385,36.946053 q -1.706669,0 -3.120004,-0.613334 -1.413336,-0.640001 -2.42667,-1.813335 -1.013335,-1.200002 -1.573335,-2.880004 -0.560001,-1.680002 -0.560001,-3.813338 0,-2.10667 0.560001,-3.760005 0.56,-1.680002 1.573335,-2.82667 1.013334,-1.146668 2.42667,-1.760002 1.413335,-0.613335 3.120004,-0.613335 1.706668,0 3.120003,0.613335 1.413336,0.613334 2.42667,1.760002 1.040002,1.146668 1.600002,2.82667 0.560001,1.653335 0.560001,3.760005 0,2.133336 -0.560001,3.813338 -0.56,1.680002 -1.600002,2.880004 -1.013334,1.173334 -2.42667,1.813335 -1.413335,0.613334 -3.120003,0.613334 z m 0,-2.693336 q 1.040001,0 1.866669,-0.453334 0.826667,-0.453334 1.413335,-1.280002 0.586667,-0.853334 0.906667,-2.026669 0.320001,-1.200002 0.320001,-2.66667 0,-2.933337 -1.226668,-4.586673 -1.200002,-1.680002 -3.280004,-1.680002 -2.080003,0 -3.306671,1.680002 -1.200002,1.653336 -1.200002,4.586673 0,1.466668 0.320001,2.66667 0.32,1.173335 0.906667,2.026669 0.586668,0.826668 1.413335,1.280002 0.826668,0.453334 1.86667,0.453334 z"
         id="path410" />
      <path
         d="m 48.053395,19.186031 h 4.666673 q 4.000005,0 6.240008,2.160003 2.240002,2.160002 2.240002,6.480008 0,2.160002 -0.586667,3.813338 -0.560001,1.653335 -1.653335,2.773337 -1.066669,1.093334 -2.613337,1.653335 -1.520002,0.560001 -3.466671,0.560001 h -4.826673 z m 4.453339,14.933352 q 2.66667,0 4.080005,-1.520002 1.440002,-1.546669 1.440002,-4.773339 0,-3.200004 -1.440002,-4.666673 -1.440002,-1.466668 -4.080005,-1.466668 h -1.360002 v 12.426682 z"
         id="path412" />
      <path
         d="m 64.720082,19.186031 h 3.093337 V 36.626053 H 64.720082 V 22.319328 Z"
         id="path414"
         sodipodi:nodetypes="cccccc" />
      <path
         d="m 79.546755,36.946053 q -1.760003,0 -3.280005,-0.586667 -1.493335,-0.586668 -2.613336,-1.733336 -1.093335,-1.146668 -1.706669,-2.82667 -0.613334,-1.680002 -0.613334,-3.840005 0,-2.133336 0.640001,-3.813338 0.640001,-1.706669 1.733335,-2.880004 1.120002,-1.173334 2.613337,-1.786668 1.520002,-0.613335 3.253337,-0.613335 1.866669,0 3.146671,0.693335 1.306668,0.666667 2.133336,1.520002 l -1.653335,2.000002 q -0.666668,-0.640001 -1.493336,-1.066668 -0.800001,-0.453334 -2.026669,-0.453334 -1.173335,0 -2.133336,0.453334 -0.933334,0.426667 -1.626669,1.253335 -0.666667,0.800001 -1.040001,1.973336 -0.373334,1.173335 -0.373334,2.640003 0,2.986671 1.333335,4.693339 1.360002,1.680003 4.000005,1.680003 0.746668,0 1.413335,-0.186667 0.666668,-0.213334 1.093335,-0.586668 v -3.760005 h -3.306671 v -2.533336 h 6.080008 v 7.68001 q -0.880001,0.880001 -2.34667,1.493335 -1.440001,0.586667 -3.22667,0.586667 z"
         id="path416" />
      <path
         d="m 88.986775,19.186031 h 3.093337 v 17.440022 h -3.093337 z"
         id="path418" />
      <path
         d="m 100.02678,21.799367 h -5.04001 v -2.613336 h 13.17335 v 2.613336 h -5.04001 v 14.826686 h -3.09333 z"
         id="path420" />
    </g>
  </g>
</svg>
